# xmcd
#
# Track frame offsets:
#	150
#	17761
#	35298
#	53153
#	67228
#	85200
#	102229
#	119350
#	133329
#	149965
#	167298
#	181678
#	199185
#	217380
#	229999
#	244964
#	263547
#	278344
#	293455
#	310721
#	328404
#
# Disc length: 4625 seconds
#
# Revision: 2
# Processed by: cddbd v1.5.2PL0 Copyright (c) Steve Scherf et al.
# Submitted via: dBpowerAMP V4.0
#
DISCID=3f120f15
DTITLE=Various Artist - ERG Nu Country Traxx Volume 173
DYEAR=2008
DGENRE=Country
TTITLE0=Rascal Flatts - Here
TTITLE1=Taylor Swift - Love Story
TTITLE2=Brad Paisley ft Keith Urban - Start A Band
TTITLE3=George Canyon - Just Like You
TTITLE4=Aaron Lines - Let's Get Drunk And Fight
TTITLE5=Jack Ingram - That's A Man
TTITLE6=Lisa Brokop - November Trees
TTITLE7=Cross Canadian Ragweed - Record Exec
TTITLE8=Jessica Simpson - Remember That
TTITLE9=Jaydee Bixby - Boys In The Band
TTITLE10=Sara Evans - Low
TTITLE11=Brad Johner - Other Side Of The Radio
TTITLE12=Jewel - Till It Feels Like Cheating
TTITLE13=Jessie Farrell - I Guess
TTITLE14=Dierks Bentley - Feel That Fire
TTITLE15=Dean Brody - Brothers
TTITLE16=Wilkinsons, The - When I'm Old
TTITLE17=Jimmy Wayne - I Will
TTITLE18=Mark Chesnutt - (Come On In) The Whiskey's Fine
TTITLE19=Steve Azar - You're My Life
TTITLE20=Rio Grand - God's Got A Bigger Plan
EXTD=
EXTT0=
EXTT1=
EXTT2=
EXTT3=
EXTT4=
EXTT5=
EXTT6=
EXTT7=
EXTT8=
EXTT9=
EXTT10=
EXTT11=
EXTT12=
EXTT13=
EXTT14=
EXTT15=
EXTT16=
EXTT17=
EXTT18=
EXTT19=
EXTT20=
PLAYORDER=
